<svg xmlns="http://www.w3.org/2000/svg" xmlns:xlink="http://www.w3.org/1999/xlink" version="1.1" id="Layer_1" x="0px" y="0px" width="100%" viewBox="0 0 512 512" enable-background="new 0 0 512 512" xml:space="preserve">


<path fill="#02648E" opacity="1.000000" stroke="none" d=" M202.531342,1.000000   C203.000000,29.730547 203.000000,58.461094 203.000000,88.036430   C199.090805,88.036430 194.507355,88.036430 188.992355,88.029282   C175.603912,88.005104 163.145966,87.878296 150.690292,87.993622   C123.787712,88.242699 96.886292,88.616013 69.554665,88.839462   C67.079361,88.653313 65.033798,88.566200 63.008533,88.142128   C74.621895,63.879742 90.380211,43.121906 111.246086,26.622385   C125.127808,15.645535 140.408310,6.971861 158.103897,3.380491   C159.505890,3.095951 160.706039,1.816881 162.000000,1.000001   C175.354233,1.000000 188.708450,1.000000 202.531342,1.000000  z"/>
<path fill="#FFC700" opacity="1.000000" stroke="none" d=" M311.468658,513.000000   C311.000000,487.845734 311.000000,462.691467 311.000000,436.982605   C315.241760,436.982605 320.160339,436.982605 326.007263,436.979370   C365.955078,436.611633 404.974518,436.247131 444.427429,435.960022   C446.916016,436.114136 448.971100,436.190857 451.004028,436.626831   C446.459045,449.396271 438.521667,459.737366 429.926819,469.360229   C410.625916,490.969788 386.608459,504.697296 357.973022,510.105896   C356.840210,510.319824 355.984741,512.001953 355.000000,513.000000   C340.645782,513.000000 326.291534,513.000000 311.468658,513.000000  z"/>
<path fill="#035D7C" opacity="1.000000" stroke="none" d=" M161.531342,1.000001   C160.706039,1.816881 159.505890,3.095951 158.103897,3.380491   C140.408310,6.971861 125.127808,15.645535 111.246086,26.622385   C90.380211,43.121906 74.621895,63.879742 62.546867,88.206146   C57.364128,88.775810 52.663361,88.944496 47.962589,89.113190   C43.184486,89.113182 38.406387,89.113182 33.040054,89.113182   C32.688034,59.611713 32.343945,30.774515 31.999928,1.468657   C75.020897,1.000000 118.041786,1.000000 161.531342,1.000001  z"/>
<path fill="#EFB703" opacity="1.000000" stroke="none" d=" M355.468689,513.000000   C355.984741,512.001953 356.840210,510.319824 357.973022,510.105896   C386.608459,504.697296 410.625916,490.969788 429.926819,469.360229   C438.521667,459.737366 446.459045,449.396271 451.461426,436.551971   C456.629944,436.034790 461.318939,435.951782 466.007904,435.868774   C470.244598,435.608032 474.484039,435.384613 478.717194,435.075348   C482.444397,434.803070 482.004517,437.365723 482.003479,439.708588   C481.995178,458.155426 481.959412,476.602448 482.023895,495.049042   C482.043823,500.753754 482.347168,506.457458 482.760376,512.580811   C440.645782,513.000000 398.291534,513.000000 355.468689,513.000000  z"/>
<path fill="#808285" opacity="1.000000" stroke="none" d=" M436.536804,1.000000   C437.000000,11.488357 437.000000,21.976713 437.000000,33.312073   C431.860077,32.675770 428.211914,32.224144 424.306946,31.740725   C424.306946,21.721798 424.306946,11.810431 424.153473,1.449533   C428.024536,1.000000 432.049103,1.000000 436.536804,1.000000  z"/>
<path fill="#808285" opacity="1.000000" stroke="none" d=" M88.463181,513.000000   C88.000000,502.836334 88.000000,492.672638 88.000000,482.263062   C93.392220,482.263062 97.301865,482.263062 100.999931,482.263062   C100.999931,492.191010 100.999931,502.126892 100.999969,512.531372   C96.975456,513.000000 92.950912,513.000000 88.463181,513.000000  z"/>
<path fill="#C11F2F" opacity="1.000000" stroke="none" d=" M196.085388,159.925430   C201.743851,156.825989 207.424591,155.374084 213.684830,160.152435   C224.683472,183.921722 235.157623,207.243134 245.727142,230.521240   C246.474579,232.167343 247.924484,233.494461 249.047729,234.969925   C250.055573,233.421005 251.349075,231.987274 252.027176,230.305405   C258.927124,213.191849 275.117157,205.262085 289.370911,206.339615   C313.223877,208.142761 329.139587,229.963760 323.838226,252.087769   C320.707092,265.154785 313.274384,275.685181 299.447876,278.825592   C291.357330,280.663177 282.725647,280.367493 274.328735,280.505432   C269.894226,280.578339 268.475342,281.828857 270.225311,285.939148   C271.390167,288.675140 272.797058,291.308075 274.115540,294.348450   C280.884338,309.872803 287.721558,324.997559 294.332794,340.220398   C296.563416,345.356598 298.221008,350.741669 300.140503,356.013000   C299.538574,361.249817 297.126495,365.161774 292.169067,367.412872   C270.101715,377.433075 248.071960,387.536285 225.974533,397.489441   C224.444321,398.178711 222.473328,397.889496 219.638550,398.155670   C220.377396,394.921265 220.716782,392.249451 221.596970,389.769562   C228.855621,369.318512 216.119614,347.578918 195.362869,342.375153   C170.410172,336.119476 147.782013,357.659485 150.129593,381.776398   C151.239822,393.181885 158.028152,401.732788 166.649765,408.844177   C168.654037,410.497314 171.013107,411.737335 172.931259,413.474121   C176.351624,416.571136 175.967575,419.671997 171.858383,421.548798   C158.302414,427.740387 144.694794,433.819611 131.080505,439.882446   C120.161789,444.744965 109.206139,449.524597 98.260818,454.327179   C97.528786,454.648346 96.745529,454.852753 95.754715,455.190308   C89.122025,440.278748 82.561401,425.529205 76.252716,410.249878   C82.414810,404.897522 88.559868,400.333160 94.194382,395.207550   C118.438553,373.153015 137.638916,347.179230 152.390823,318.013702   C164.065475,294.932129 172.649857,270.636566 177.684998,245.223663   C182.849472,219.157944 186.281067,192.904877 184.286011,165.980667   C188.397461,163.802155 192.241425,161.863785 196.085388,159.925430  z"/>
<path fill="#D22732" opacity="1.000000" stroke="none" d=" M184.018539,166.220825   C186.281067,192.904877 182.849472,219.157944 177.684998,245.223663   C172.649857,270.636566 164.065475,294.932129 152.390823,318.013702   C137.638916,347.179230 118.438553,373.153015 94.194382,395.207550   C88.559868,400.333160 82.414810,404.897522 76.204193,409.883240   C71.306473,400.136292 66.629272,390.262360 62.132755,380.306824   C56.817543,368.538635 51.661720,356.698456 46.430847,344.892151   C35.906582,321.138397 25.423605,297.366180 14.819806,273.647949   C12.157672,267.693359 8.446118,262.255219 8.906188,255.169922   C9.402644,247.524307 13.171043,241.805893 20.507627,238.738571   C23.822412,237.352692 26.977341,235.584473 30.832851,234.209579   C38.185719,255.302094 44.892925,276.180450 51.644905,297.044312   C54.004128,304.334381 59.126202,307.429077 66.614037,305.824280   C72.575974,304.546478 77.284142,301.339142 80.074783,295.689575   C83.727608,288.294495 84.892532,280.494812 83.608688,272.396484   C81.266762,257.623840 78.830330,242.865356 76.282585,228.127029   C75.808876,225.386719 76.842957,224.291351 78.928467,222.599503   C84.932831,217.728546 90.429733,212.233337 96.147804,207.007217   C97.462700,205.805435 98.689606,204.308685 100.252937,203.606873   C128.147629,191.084320 156.087997,178.663513 184.018539,166.220825  z"/>
<path fill="#EFCDB1" opacity="1.000000" stroke="none" d=" M481.004272,281.174683   C482.686554,287.212646 483.797699,293.491241 486.212036,299.220734   C488.617249,304.928711 488.779297,310.118225 487.089844,315.992035   C481.521179,335.353210 476.658813,354.922485 470.816071,374.196869   C469.088989,379.894348 465.016907,384.880981 461.595520,390.591492   C455.450073,391.315002 449.728546,391.640381 443.537903,391.960327   C406.355164,391.941193 369.641510,391.927521 332.927856,391.913879   C325.291626,384.143524 320.494171,374.871429 318.646820,364.163208   C318.068451,360.810730 318.184967,357.338379 318.087738,353.157166   C319.805908,351.561707 321.380951,350.641876 323.039307,349.911133   C360.069244,333.593994 397.081207,317.235199 434.189575,301.098175   C437.734192,299.556763 438.458191,297.701538 437.812042,294.297943   C436.327118,286.475586 435.045654,278.614624 433.647888,270.333008   C432.803680,264.804077 432.065491,259.698700 431.166809,254.621689   C429.582184,245.669647 430.360199,237.037781 434.529541,228.868576   C438.005707,222.057556 445.123352,218.158218 452.595337,218.740845   C460.096802,219.325760 462.089813,224.887741 463.929993,230.842697   C466.531006,239.259735 469.394775,247.595596 472.158447,256.342621   C473.731659,261.597870 475.181396,266.516022 476.891754,271.341888   C478.076660,274.685364 479.620728,277.901581 481.004272,281.174683  z"/>
<path fill="#EFCDB1" opacity="1.000000" stroke="none" d=" M184.286011,165.980667   C156.087997,178.663513 128.147629,191.084320 100.252937,203.606873   C98.689606,204.308685 97.462700,205.805435 96.147804,207.007217   C90.429733,212.233337 84.932831,217.728546 78.928467,222.599503   C76.842957,224.291351 75.808876,225.386719 76.282585,228.127029   C78.830330,242.865356 81.266762,257.623840 83.608688,272.396484   C84.892532,280.494812 83.727608,288.294495 80.074783,295.689575   C77.284142,301.339142 72.575974,304.546478 66.614037,305.824280   C59.126202,307.429077 54.004128,304.334381 51.644905,297.044312   C44.892925,276.180450 38.185719,255.302094 31.198378,234.171448   C29.300167,228.904007 26.634331,223.958740 26.317240,218.867188   C25.997284,213.729630 27.700537,208.365891 29.053181,203.242691   C33.557648,186.181763 37.885281,169.053177 43.171940,152.230621   C45.139908,145.968399 49.566963,140.478958 53.365051,134.117706   C59.246243,133.378815 64.635056,133.159363 70.489624,132.959915   C105.558174,132.662537 140.160812,132.322495 174.764130,132.076248   C177.197784,132.058945 179.636368,132.734253 182.072662,133.087479   C188.938187,140.589813 193.183502,149.491623 196.041229,159.541779   C192.241425,161.863785 188.397461,163.802155 184.286011,165.980667  z"/>
<path fill="#EFB703" opacity="1.000000" stroke="none" d=" M433.681580,270.769318   C435.045654,278.614624 436.327118,286.475586 437.812042,294.297943   C438.458191,297.701538 437.734192,299.556763 434.189575,301.098175   C397.081207,317.235199 360.069244,333.593994 323.039307,349.911133   C321.380951,350.641876 319.805908,351.561707 318.014954,352.703491   C313.237274,354.838776 308.576050,356.527924 304.059479,358.541473   C301.446350,359.706390 300.876617,358.619049 300.470703,356.195740   C298.221008,350.741669 296.563416,345.356598 294.332794,340.220398   C287.721558,324.997559 280.884338,309.872803 274.577301,294.351501   C292.740234,293.334381 310.512756,293.296387 328.167542,291.835602   C344.623901,290.473999 361.135529,288.478485 377.294281,285.161560   C396.275024,281.265350 414.901489,275.643036 433.681580,270.769318  z"/>
<path fill="#D1D0DF" opacity="1.000000" stroke="none" d=" M332.514771,391.952698   C369.641510,391.927521 406.355164,391.941193 443.535675,392.432831   C443.999664,407.234772 443.996826,421.558685 443.993988,435.882629   C404.974518,436.247131 365.955078,436.611633 326.471252,436.914673   C323.511353,434.617889 322.905182,431.895538 322.895020,428.529327   C322.867218,419.314026 322.001831,410.095612 322.129547,400.887604   C322.205933,395.380493 323.160095,392.422791 332.514771,391.952698  z"/>
<path fill="#B6B6C7" opacity="1.000000" stroke="none" d=" M70.023865,132.939911   C64.635056,133.159363 59.246243,133.378815 53.492699,133.782410   C47.066441,132.682541 45.565681,128.846680 45.868305,122.949623   C46.351627,113.531471 45.907898,104.068512 46.052494,94.627510   C46.077206,93.014191 47.080978,91.415863 47.797523,89.461899   C52.663361,88.944496 57.364128,88.775810 62.526566,88.543106   C65.033798,88.566200 67.079361,88.653313 69.570526,89.312515   C70.018707,104.236382 70.021286,118.588142 70.023865,132.939911  z"/>
<path fill="#808285" opacity="1.000000" stroke="none" d=" M59.289188,482.320923   C56.562798,487.757324 54.042507,492.876953 51.599255,497.840057   C50.928051,497.889984 50.550900,498.032471 50.274712,497.922180   C39.186737,493.494080 39.189098,493.491669 44.391491,483.164948   C47.409374,477.174469 50.422783,471.181763 53.619778,464.829254   C57.512611,467.033691 61.276871,469.165344 65.035469,471.293793   C63.075645,475.082550 61.285469,478.543335 59.289188,482.320923  z"/>
<path fill="#808285" opacity="1.000000" stroke="none" d=" M137.248016,494.599854   C133.020996,486.464752 128.977081,478.651276 124.817879,470.615021   C128.802032,468.635071 132.562363,466.766388 136.800323,464.660339   C141.404999,473.864349 145.850830,482.750854 150.505798,492.055420   C147.320389,493.752441 144.404587,495.121216 141.685822,496.807617   C139.113556,498.403229 138.251724,496.887207 137.248016,494.599854  z"/>
<path fill="#FFC700" opacity="1.000000" stroke="none" d=" M433.647888,270.333008   C414.901489,275.643036 396.275024,281.265350 377.294281,285.161560   C361.135529,288.478485 344.623901,290.473999 328.167542,291.835602   C310.512756,293.296387 292.740234,293.334381 274.557343,293.990204   C272.797058,291.308075 271.390167,288.675140 270.225311,285.939148   C268.475342,281.828857 269.894226,280.578339 274.328735,280.505432   C282.725647,280.367493 291.357330,280.663177 299.447876,278.825592   C313.274384,275.685181 320.707092,265.154785 323.838226,252.087769   C329.139587,229.963760 313.223877,208.142761 289.370911,206.339615   C275.117157,205.262085 258.927124,213.191849 252.027176,230.305405   C251.349075,231.987274 250.055573,233.421005 249.047729,234.969925   C247.924484,233.494461 246.474579,232.167343 245.727142,230.521240   C235.157623,207.243134 224.683472,183.921722 214.011490,160.295746   C211.991531,152.850311 212.057999,153.001953 219.759979,149.625748   C237.519241,141.840851 255.199585,133.876083 272.928345,126.021347   C279.968903,122.902031 287.052917,119.880829 295.320038,116.292900   C292.753387,114.811958 291.289551,113.618317 289.613708,113.052925   C265.622375,104.958664 257.065796,73.328651 273.754639,53.651188   C290.474731,33.936871 320.971497,35.213142 335.605713,58.483391   C338.083160,62.422867 339.279083,67.524323 339.825836,72.233047   C340.531799,78.313469 340.137970,84.543808 339.934418,90.700218   C339.785431,95.206718 340.891083,96.199219 345.141663,94.356331   C351.822784,91.459633 358.421234,88.372871 365.088104,85.442566   C383.535004,77.334541 401.999176,69.265800 420.707184,61.071743   C427.848206,77.455658 434.930786,93.740692 442.043488,110.012558   C447.093323,121.565170 452.195709,133.094803 457.253693,144.643875   C466.579895,165.938675 475.852722,187.256943 485.224518,208.531631   C489.587494,218.435837 494.142731,228.255234 498.575439,238.128952   C499.162018,239.435577 499.538727,240.836441 499.734863,242.724121   C490.353485,247.491760 481.249847,251.728973 472.146179,255.966187   C469.394775,247.595596 466.531006,239.259735 463.929993,230.842697   C462.089813,224.887741 460.096802,219.325760 452.595337,218.740845   C445.123352,218.158218 438.005707,222.057556 434.529541,228.868576   C430.360199,237.037781 429.582184,245.669647 431.166809,254.621689   C432.065491,259.698700 432.803680,264.804077 433.647888,270.333008  z"/>
<path fill="#D1D0DF" opacity="1.000000" stroke="none" d=" M70.489624,132.959915   C70.021286,118.588142 70.018707,104.236382 70.000259,89.411560   C96.886292,88.616013 123.787712,88.242699 150.690292,87.993622   C163.145966,87.878296 175.603912,88.005104 188.527344,88.080109   C189.996201,91.127602 191.725388,94.084137 191.862900,97.112923   C192.255432,105.759819 192.004822,114.436096 191.999435,123.100815   C191.995041,130.164230 190.276749,132.024292 182.473297,133.048401   C179.636368,132.734253 177.197784,132.058945 174.764130,132.076248   C140.160812,132.322495 105.558174,132.662537 70.489624,132.959915  z"/>
<path fill="#B5B5C6" opacity="1.000000" stroke="none" d=" M444.427429,435.960022   C443.996826,421.558685 443.999664,407.234772 444.004761,392.438293   C449.728546,391.640381 455.450073,391.315002 461.642761,390.952942   C467.114258,392.511993 468.217804,396.007660 468.136841,401.018280   C467.990570,410.068390 468.863892,419.131775 468.864319,428.189636   C468.864410,430.527130 467.201355,432.864716 466.155090,435.535522   C461.318939,435.951782 456.629944,436.034790 451.483582,436.192688   C448.971100,436.190857 446.916016,436.114136 444.427429,435.960022  z"/>
<path fill="#EFB704" opacity="1.000000" stroke="none" d=" M472.158447,256.342651   C481.249847,251.728973 490.353485,247.491760 499.782043,243.107834   C504.233429,249.079636 506.320374,255.648209 504.458038,263.054688   C502.319153,271.561157 495.026886,274.502716 488.236420,277.942505   C486.102875,279.023285 483.862152,279.892487 481.337402,281.016602   C479.620728,277.901581 478.076660,274.685364 476.891754,271.341888   C475.181396,266.516022 473.731659,261.597870 472.158447,256.342651  z"/>
<path fill="#808285" opacity="1.000000" stroke="none" d=" M473.952820,19.165726   C474.921356,18.507730 476.012238,17.708984 476.634735,17.981222   C480.060852,19.479605 483.372528,21.239796 486.984680,23.040375   C482.521301,31.641684 478.330170,39.941715 473.825653,48.068043   C473.353210,48.920345 470.782318,49.381470 469.615936,48.924397   C466.743988,47.799004 464.123108,46.033005 461.234802,44.432350   C465.436737,36.140102 469.647827,27.829744 473.952820,19.165726  z"/>
<path fill="#808285" opacity="1.000000" stroke="none" d=" M396.708374,35.318680   C398.257568,38.434669 399.600098,41.234138 401.107086,44.376511   C397.274261,46.310265 393.534637,48.197006 389.719208,50.121983   C384.895721,40.924816 380.209351,31.989084 375.460480,22.934166   C379.357849,20.826256 382.649445,19.045971 387.010864,16.687078   C390.127930,22.702274 393.314819,28.852213 396.708374,35.318680  z"/>
</svg>