<svg xmlns="http://www.w3.org/2000/svg" xmlns:xlink="http://www.w3.org/1999/xlink" width="200" zoomAndPan="magnify" viewBox="70 80 90 50" preserveAspectRatio="xMidYMid meet" version="1.0" fill="white" height="200">
  <path d="M 111.988281 104.429688 L 111.988281 104.207031 L 111.992188 103.988281 L 111.992188 103.765625 C 111.726562 97.226562 106.351562 91.925781 99.707031 91.816406 L 98.820312 91.800781 L 97.714844 91.78125 C 96.386719 91.757812 95.265625 92.847656 95.253906 94.175781 C 95.238281 95.503906 96.335938 96.632812 97.664062 96.652344 L 99.4375 96.683594 C 103.644531 96.753906 107.042969 100.246094 107.003906 104.457031 L 106.988281 105.785156 C 106.976562 107.113281 107.960938 108.128906 109.292969 108.152344 C 109.957031 108.160156 110.511719 107.839844 110.960938 107.402344 C 111.40625 106.96875 111.636719 106.308594 111.753906 105.753906 Z M 111.988281 104.429688 " fill-opacity="1" fill-rule="nonzero"/>
  <path d="M 119.949219 105.894531 L 119.957031 104.785156 L 119.96875 103.898438 L 119.972656 103.457031 C 119.191406 92.808594 110.527344 84.132812 99.785156 83.839844 C 99.785156 83.839844 99.675781 83.726562 99.566406 83.835938 L 97.683594 83.695312 C 96.578125 83.675781 95.570312 84.65625 95.445312 85.871094 C 95.4375 86.980469 96.421875 87.992188 97.640625 88.125 L 99.632812 88.15625 C 108.382812 88.417969 115.398438 95.625 115.535156 104.269531 L 115.519531 105.820312 C 115.507812 106.925781 116.492188 107.941406 117.710938 108.070312 C 118.816406 108.089844 119.824219 107.109375 119.949219 105.894531 Z M 119.949219 105.894531 " fill-opacity="1" fill-rule="nonzero"/>
  <path d="M 99.09375 117.710938 L 99.316406 117.714844 L 99.535156 117.722656 L 99.757812 117.726562 C 106.300781 117.554688 111.675781 112.253906 111.878906 105.609375 L 111.910156 104.726562 L 111.941406 103.617188 C 111.984375 102.289062 110.910156 101.15625 109.582031 101.125 C 108.253906 101.089844 107.113281 102.171875 107.070312 103.5 L 107.015625 105.273438 C 106.882812 109.480469 103.34375 112.828125 99.136719 112.726562 L 97.808594 112.695312 C 96.480469 112.664062 95.453125 113.632812 95.410156 114.964844 C 95.390625 115.628906 95.707031 116.1875 96.132812 116.640625 C 96.5625 117.097656 97.222656 117.332031 97.769531 117.457031 Z M 99.09375 117.710938 " fill-opacity="1" fill-rule="nonzero"/>
  <path d="M 97.515625 125.648438 L 98.625 125.675781 L 99.507812 125.699219 L 99.953125 125.707031 C 110.609375 125.078125 119.410156 116.539062 119.851562 105.804688 C 119.851562 105.804688 119.96875 105.695312 119.859375 105.582031 L 120.03125 103.703125 C 120.0625 102.597656 119.097656 101.574219 117.882812 101.433594 C 116.777344 101.410156 115.75 102.378906 115.601562 103.597656 L 115.539062 105.589844 C 115.15625 114.332031 107.847656 121.246094 99.203125 121.257812 L 97.652344 121.222656 C 96.546875 121.195312 95.519531 122.167969 95.371094 123.382812 C 95.335938 124.488281 96.300781 125.511719 97.515625 125.648438 Z M 97.515625 125.648438 " fill-opacity="1" fill-rule="nonzero"/>
  <path d="M 100.039062 100.261719 C 101.0625 100.261719 101.894531 101.101562 101.894531 102.136719 L 101.894531 108.011719 C 101.894531 109.046875 101.0625 109.886719 100.039062 109.886719 C 99.015625 109.886719 98.183594 109.046875 98.183594 108.011719 L 98.183594 102.136719 C 98.183594 101.101562 99.015625 100.261719 100.039062 100.261719 Z M 100.039062 100.261719 " fill-opacity="1" fill-rule="nonzero"/>
</svg>