<svg xmlns="http://www.w3.org/2000/svg" version="1.0" width="314pt" height="314pt" viewBox="0 0 314 314" preserveAspectRatio="xMidYMid meet">
<g transform="translate(-40,300) scale(0.12,-0.1)" fill="#fff" stroke="none">
<path d="M845 2440 c-39 -40 -38 -90 1 -131 15 -16 36 -29 46 -29 27 0 182 -71 248 -114 65 -43 167 -143 204 -201 59 -92 65 -102 72 -141 3 -21 11 -45 17 -52 13 -16 40 -180 40 -242 0 -72 -23 -232 -39 -262 -8 -15 -14 -35 -14 -44 0 -50 -90 -193 -171 -271 -40 -38 -173 -133 -186 -133 -3 0 -24 -9 -47 -19 -23 -10 -74 -31 -113 -46 -68 -25 -73 -29 -83 -65 -6 -22 -8 -50 -4 -64 8 -33 69 -69 103 -62 112 22 235 77 344 152 64 45 192 174 231 234 16 25 37 57 47 71 10 15 21 39 25 53 3 14 12 30 20 37 8 6 14 19 14 28 0 9 9 30 20 46 11 17 20 44 20 60 0 17 8 44 17 60 26 44 26 350 1 413 -10 23 -18 54 -18 68 0 22 -71 177 -113 249 -29 50 -110 146 -166 198 -61 56 -160 127 -178 127 -5 0 -14 5 -20 11 -12 12 -122 59 -138 59 -6 0 -27 9 -48 20 -55 29 -97 26 -132 -10z"/>
<path d="M729 2088 c-15 -13 -30 -38 -34 -55 -9 -42 11 -100 36 -108 10 -4 19 -10 19 -15 0 -5 15 -11 33 -15 67 -14 152 -62 198 -111 48 -52 70 -101 87 -195 13 -69 -7 -213 -37 -275 -36 -74 -150 -156 -247 -178 -65 -15 -103 -75 -83 -133 18 -54 46 -66 142 -60 85 5 120 18 216 81 110 71 198 208 242 379 20 80 21 95 10 150 -6 34 -16 88 -22 119 -12 74 -73 180 -147 258 -60 64 -69 70 -167 118 -134 65 -204 76 -246 40z"/>
<path d="M696 1695 c-13 -20 -16 -54 -16 -180 0 -194 8 -215 83 -215 31 0 40 5 57 33 17 28 20 50 20 177 0 127 -3 149 -20 178 -17 28 -25 32 -64 32 -35 0 -47 -5 -60 -25z"/>
</g>
</svg>