<?xml version="1.0" standalone="no"?>
<!DOCTYPE svg PUBLIC "-//W3C//DTD SVG 20010904//EN"
 "http://www.w3.org/TR/2001/REC-SVG-20010904/DTD/svg10.dtd">
<svg version="1.0" xmlns="http://www.w3.org/2000/svg"
 width="512.000000pt" height="512.000000pt" viewBox="0 0 512.000000 512.000000"
 preserveAspectRatio="xMidYMid meet">

<g transform="translate(0.000000,512.000000) scale(0.100000,-0.100000)"
fill="#000000" stroke="none">
<path d="M2473 5102 c-130 -47 -203 -150 -203 -287 0 -52 6 -75 33 -126 34
-68 107 -133 159 -145 l28 -6 0 -204 0 -204 85 0 85 0 0 204 0 204 37 13 c45
14 122 89 148 144 27 56 32 160 11 223 -22 64 -85 136 -148 168 -68 35 -165
41 -235 16z m175 -172 c34 -21 62 -72 62 -112 0 -37 -34 -90 -71 -110 -25 -14
-47 -18 -83 -15 -41 4 -55 10 -82 40 -42 46 -52 93 -28 142 34 72 131 98 202
55z"/>
<path d="M505 3994 c-95 -24 -167 -77 -210 -155 -27 -48 -30 -63 -30 -139 0
-69 5 -93 23 -127 88 -166 282 -220 437 -122 l47 30 180 -116 c99 -63 183
-115 187 -115 3 0 25 30 48 67 l42 67 -109 71 c-61 38 -143 91 -184 117 l-74
47 0 74 c0 122 -59 220 -165 272 -51 24 -150 39 -192 29z m126 -179 c121 -63
70 -245 -69 -245 -24 0 -57 8 -73 17 -39 23 -73 93 -64 133 8 36 49 88 79 100
34 14 95 11 127 -5z"/>
<path d="M4490 3971 c-92 -30 -174 -104 -204 -183 -13 -32 -17 -66 -14 -118
l3 -72 -182 -116 c-101 -65 -183 -120 -183 -124 0 -4 19 -36 41 -72 39 -61 43
-64 63 -51 12 7 95 60 185 118 l164 105 36 -23 c58 -39 150 -58 217 -46 104
20 178 73 227 165 33 62 31 193 -3 259 -30 59 -87 112 -149 140 -49 22 -160
32 -201 18z m153 -178 c37 -18 71 -92 62 -133 -8 -37 -39 -76 -75 -95 -112
-58 -242 64 -186 174 19 36 37 50 83 66 40 14 70 11 116 -12z"/>
<path d="M2292 3753 c-34 -7 -98 -75 -105 -113 -4 -18 -7 -73 -7 -123 l0 -90
-67 65 c-78 75 -118 98 -168 98 -61 0 -104 -32 -271 -202 -172 -174 -192 -205
-179 -276 5 -27 26 -56 87 -118 l79 -82 -108 -3 c-132 -5 -166 -21 -202 -92
-23 -47 -23 -48 -16 -287 7 -223 9 -243 29 -273 36 -54 76 -67 200 -67 l109 0
-71 -74 c-76 -78 -92 -106 -92 -162 0 -63 14 -79 295 -346 133 -126 191 -127
314 -4 42 42 80 76 84 76 4 0 7 -46 7 -103 0 -117 14 -156 71 -195 33 -23 36
-23 295 -20 247 3 264 4 290 24 61 45 69 66 72 190 l4 114 83 -74 c90 -80 123
-94 193 -81 31 5 65 34 214 183 149 149 178 184 188 220 19 72 0 114 -86 196
-88 83 -87 83 56 85 106 1 145 19 178 82 24 43 24 47 19 282 -6 264 -10 280
-77 324 -29 21 -45 23 -149 23 l-115 0 65 68 c37 37 74 78 83 92 20 30 21 105
2 142 -14 26 -202 213 -313 311 -103 91 -167 84 -284 -29 l-76 -75 -7 47 c-3
26 -6 74 -6 108 0 71 -22 115 -72 146 -31 19 -50 20 -278 19 -135 -1 -255 -4
-268 -6z m458 -268 c0 -149 6 -162 98 -198 108 -42 114 -40 212 58 47 47 90
84 97 83 6 -2 73 -61 148 -132 l137 -129 -81 -81 c-106 -107 -109 -118 -70
-209 45 -106 47 -107 200 -107 l129 0 0 -195 0 -195 -124 0 c-146 0 -154 -4
-193 -95 -46 -109 -47 -103 61 -213 l96 -98 -139 -138 -139 -139 -94 86 c-108
101 -119 104 -221 57 -92 -42 -97 -51 -97 -191 l0 -117 -122 -7 c-68 -3 -157
-5 -198 -3 l-75 3 -5 127 c-6 146 -5 144 -97 182 -103 43 -115 40 -217 -63
l-89 -90 -143 137 -144 136 85 86 c46 47 87 98 90 112 5 17 -2 44 -19 82 -14
31 -26 60 -26 65 0 4 -12 18 -26 32 -25 23 -30 24 -155 21 l-129 -3 0 194 0
194 128 7 c148 8 145 6 191 113 40 92 35 104 -72 205 l-82 77 140 140 140 141
93 -85 c71 -66 99 -85 121 -85 35 0 161 55 179 77 8 11 12 57 12 139 l0 123
68 4 c37 2 127 4 200 5 l132 2 0 -115z"/>
<path d="M2421 3045 c-190 -53 -339 -226 -358 -415 -13 -116 0 -192 47 -286
87 -176 254 -277 459 -276 229 1 417 140 482 355 28 90 23 234 -10 319 -48
124 -165 241 -289 289 -75 29 -251 36 -331 14z m294 -180 c71 -34 131 -95 163
-163 38 -81 38 -193 0 -273 -33 -72 -94 -134 -167 -168 -47 -22 -70 -26 -146
-26 -76 0 -99 4 -145 26 -77 36 -121 77 -161 151 -30 57 -33 71 -34 148 0 77
3 92 33 152 44 91 122 153 219 178 65 16 178 5 238 -25z"/>
<path d="M941 1780 l-184 -118 -36 24 c-20 13 -66 31 -102 40 -54 13 -75 14
-121 5 -78 -17 -156 -66 -195 -124 -106 -158 -47 -361 126 -440 35 -17 66 -22
126 -22 96 0 157 27 221 97 57 61 77 118 72 207 l-3 72 183 117 c100 64 182
120 182 124 0 6 -76 128 -83 133 -1 1 -85 -51 -186 -115z m-322 -228 c65 -35
89 -118 51 -179 -36 -60 -125 -82 -191 -47 -39 20 -73 92 -64 135 8 35 50 87
79 99 35 15 90 11 125 -8z"/>
<path d="M3933 1803 l-41 -67 81 -52 c45 -29 128 -81 183 -117 l102 -65 0 -75
c0 -87 21 -143 77 -205 136 -151 388 -121 489 58 28 50 31 63 31 140 0 69 -5
93 -23 127 -89 168 -292 222 -446 118 l-37 -25 -179 115 c-99 63 -183 115
-188 115 -4 0 -26 -30 -49 -67z m698 -270 c16 -10 39 -37 51 -61 18 -37 19
-49 10 -81 -18 -59 -62 -94 -124 -99 -44 -3 -59 0 -88 20 -108 73 -54 238 77
238 25 0 58 -8 74 -17z"/>
<path d="M2460 787 l0 -203 -37 -13 c-45 -17 -122 -92 -148 -146 -27 -56 -32
-160 -10 -224 22 -68 90 -142 157 -172 40 -18 71 -23 128 -24 93 0 169 33 229
101 126 144 78 377 -95 459 l-54 26 0 199 0 200 -85 0 -85 0 0 -203z m186
-400 c42 -46 52 -93 28 -142 -23 -48 -67 -75 -124 -75 -57 0 -107 30 -126 75
-19 46 -18 73 4 114 26 49 75 73 136 68 41 -4 55 -10 82 -40z"/>
</g>
</svg>
