<svg version="1.0" xmlns="http://www.w3.org/2000/svg"
 width="678.000000pt" height="314.000000pt" viewBox="0 0 678.000000 314.000000"
 preserveAspectRatio="xMidYMid meet">
<g transform="translate(0.000000,314.000000) scale(0.100000,-0.100000)"
fill="#fff" stroke="none">
<path d="M845 2440 c-39 -40 -38 -90 1 -131 15 -16 36 -29 46 -29 27 0 182
-71 248 -114 65 -43 167 -143 204 -201 59 -92 65 -102 72 -141 3 -21 11 -45
17 -52 13 -16 40 -180 40 -242 0 -72 -23 -232 -39 -262 -8 -15 -14 -35 -14
-44 0 -50 -90 -193 -171 -271 -40 -38 -173 -133 -186 -133 -3 0 -24 -9 -47
-19 -23 -10 -74 -31 -113 -46 -68 -25 -73 -29 -83 -65 -6 -22 -8 -50 -4 -64 8
-33 69 -69 103 -62 112 22 235 77 344 152 64 45 192 174 231 234 16 25 37 57
47 71 10 15 21 39 25 53 3 14 12 30 20 37 8 6 14 19 14 28 0 9 9 30 20 46 11
17 20 44 20 60 0 17 8 44 17 60 26 44 26 350 1 413 -10 23 -18 54 -18 68 0 22
-71 177 -113 249 -29 50 -110 146 -166 198 -61 56 -160 127 -178 127 -5 0 -14
5 -20 11 -12 12 -122 59 -138 59 -6 0 -27 9 -48 20 -55 29 -97 26 -132 -10z"/>
<path d="M5385 2205 c-121 -31 -187 -67 -262 -141 -24 -23 -43 -46 -43 -51 0
-6 -9 -22 -20 -35 -25 -33 -44 -154 -35 -227 22 -183 164 -307 485 -421 19 -7
53 -19 75 -26 22 -8 49 -19 60 -24 11 -5 38 -17 60 -26 54 -25 113 -88 121
-131 10 -53 -1 -119 -25 -149 -12 -15 -41 -39 -64 -52 -38 -22 -53 -25 -157
-24 -105 0 -120 2 -169 27 -69 35 -96 66 -118 135 -9 30 -21 61 -26 68 -11 14
-263 17 -286 3 -13 -8 -13 -20 3 -88 10 -43 24 -85 31 -93 7 -8 15 -24 19 -35
12 -39 145 -165 175 -165 4 0 18 -9 31 -20 13 -11 32 -20 42 -20 11 0 40 -10
66 -22 44 -21 60 -23 247 -22 l200 1 97 47 c198 96 265 217 239 427 -10 71
-34 132 -68 167 -7 7 -13 17 -13 21 0 4 -12 21 -27 37 -68 74 -214 152 -368
198 -22 6 -50 17 -62 24 -12 6 -28 12 -35 12 -26 0 -137 59 -175 94 -76 68
-78 149 -4 228 29 31 47 40 109 54 168 37 314 -30 339 -157 l9 -44 149 0 150
0 -3 60 c-3 36 -11 72 -23 91 -10 17 -19 38 -19 45 0 19 -97 123 -143 154 -64
43 -99 57 -191 82 -120 31 -247 30 -371 -2z"/>
<path d="M2050 2191 c-12 -23 -13 -1006 0 -1091 23 -163 125 -311 257 -374 32
-15 67 -32 77 -38 50 -26 303 -38 418 -19 134 23 295 137 349 248 66 135 62
94 66 706 3 419 1 562 -8 573 -9 11 -43 14 -150 14 -136 0 -139 -1 -144 -22
-3 -13 -6 -266 -8 -563 l-2 -540 -27 -50 c-52 -99 -119 -135 -248 -135 -129 0
-197 37 -248 135 l-27 50 -2 540 c-2 297 -5 550 -8 563 -5 22 -8 22 -145 22
-127 0 -140 -2 -150 -19z"/>
<path d="M3511 2196 c-8 -9 -10 -218 -9 -767 l3 -754 145 0 145 0 5 477 c4
429 7 479 22 494 15 16 18 15 32 -17 9 -19 36 -65 61 -104 47 -75 110 -178
135 -223 9 -15 29 -47 45 -72 16 -25 36 -57 45 -72 24 -42 93 -157 112 -186
10 -15 27 -43 38 -62 11 -19 29 -48 40 -65 11 -16 26 -41 33 -55 30 -61 69
-110 90 -115 12 -3 83 -4 157 -3 l135 3 3 758 2 757 -26 10 c-14 6 -79 10
-144 10 -108 0 -120 -2 -130 -19 -6 -13 -10 -185 -10 -490 0 -311 -3 -472 -10
-476 -12 -8 -41 24 -73 79 -12 21 -27 48 -34 60 -7 11 -17 28 -22 36 -44 64
-61 92 -61 100 0 5 -6 15 -13 22 -12 12 -59 88 -97 156 -8 15 -32 52 -53 83
-20 31 -37 59 -37 63 0 3 -15 28 -33 54 -18 26 -38 58 -45 72 -7 14 -33 57
-57 95 -25 39 -49 79 -54 90 -5 11 -21 32 -36 48 -27 27 -29 27 -160 27 -100
0 -135 -3 -144 -14z"/>
<path d="M729 2088 c-15 -13 -30 -38 -34 -55 -9 -42 11 -100 36 -108 10 -4 19
-10 19 -15 0 -5 15 -11 33 -15 67 -14 152 -62 198 -111 48 -52 70 -101 87
-195 13 -69 -7 -213 -37 -275 -36 -74 -150 -156 -247 -178 -65 -15 -103 -75
-83 -133 18 -54 46 -66 142 -60 85 5 120 18 216 81 110 71 198 208 242 379 20
80 21 95 10 150 -6 34 -16 88 -22 119 -12 74 -73 180 -147 258 -60 64 -69 70
-167 118 -134 65 -204 76 -246 40z"/>
<path d="M696 1695 c-13 -20 -16 -54 -16 -180 0 -194 8 -215 83 -215 31 0 40
5 57 33 17 28 20 50 20 177 0 127 -3 149 -20 178 -17 28 -25 32 -64 32 -35 0
-47 -5 -60 -25z"/>
</g>
</svg>
