<svg xmlns="http://www.w3.org/2000/svg" xmlns:xlink="http://www.w3.org/1999/xlink" width="504" zoomAndPan="magnify" viewBox="110 55 100 100" height="280" preserveAspectRatio="xMidYMid meet" version="1.0" fill="white">
  <g transform="translate(123.265588, 122.178859)">
  <path d="M 28.90625 -34.171875 L 28.90625 -11.65625 C 28.90625 -7.925781 27.734375 -4.972656 25.390625 -2.796875 C 23.054688 -0.617188 19.863281 0.46875 15.8125 0.46875 C 11.820312 0.46875 8.65625 -0.582031 6.3125 -2.6875 C 3.96875 -4.800781 2.769531 -7.707031 2.71875 -11.40625 L 2.71875 -34.171875 L 9.765625 -34.171875 L 9.765625 -11.609375 C 9.765625 -9.378906 10.300781 -7.75 11.375 -6.71875 C 12.445312 -5.695312 13.925781 -5.1875 15.8125 -5.1875 C 19.769531 -5.1875 21.78125 -7.265625 21.84375 -11.421875 L 21.84375 -34.171875 Z M 28.90625 -34.171875 " />
  </g>
  <g transform="translate(154.897903, 122.178859)">
  <path d="M 30.84375 0 L 23.796875 0 L 10.09375 -22.484375 L 10.09375 0 L 3.046875 0 L 3.046875 -34.171875 L 10.09375 -34.171875 L 23.8125 -11.640625 L 23.8125 -34.171875 L 30.84375 -34.171875 Z M 30.84375 0 " />
  </g>
  <g transform="translate(188.829896, 122.178859)">
  <path d="M 20.765625 -8.96875 C 20.765625 -10.289062 20.296875 -11.304688 19.359375 -12.015625 C 18.421875 -12.734375 16.726562 -13.488281 14.28125 -14.28125 C 11.84375 -15.070312 9.914062 -15.847656 8.5 -16.609375 C 4.613281 -18.710938 2.671875 -21.539062 2.671875 -25.09375 C 2.671875 -26.9375 3.191406 -28.582031 4.234375 -30.03125 C 5.273438 -31.476562 6.769531 -32.609375 8.71875 -33.421875 C 10.664062 -34.234375 12.851562 -34.640625 15.28125 -34.640625 C 17.71875 -34.640625 19.890625 -34.195312 21.796875 -33.3125 C 23.710938 -32.425781 25.195312 -31.175781 26.25 -29.5625 C 27.300781 -27.957031 27.828125 -26.128906 27.828125 -24.078125 L 20.796875 -24.078125 C 20.796875 -25.640625 20.300781 -26.851562 19.3125 -27.71875 C 18.320312 -28.59375 16.9375 -29.03125 15.15625 -29.03125 C 13.4375 -29.03125 12.097656 -28.664062 11.140625 -27.9375 C 10.191406 -27.207031 9.71875 -26.25 9.71875 -25.0625 C 9.71875 -23.945312 10.273438 -23.015625 11.390625 -22.265625 C 12.515625 -21.515625 14.160156 -20.8125 16.328125 -20.15625 C 20.335938 -18.957031 23.253906 -17.460938 25.078125 -15.671875 C 26.910156 -13.890625 27.828125 -11.671875 27.828125 -9.015625 C 27.828125 -6.054688 26.707031 -3.734375 24.46875 -2.046875 C 22.238281 -0.367188 19.226562 0.46875 15.4375 0.46875 C 12.8125 0.46875 10.414062 -0.0078125 8.25 -0.96875 C 6.09375 -1.9375 4.445312 -3.253906 3.3125 -4.921875 C 2.1875 -6.597656 1.625 -8.539062 1.625 -10.75 L 8.6875 -10.75 C 8.6875 -6.976562 10.9375 -5.09375 15.4375 -5.09375 C 17.113281 -5.09375 18.421875 -5.429688 19.359375 -6.109375 C 20.296875 -6.796875 20.765625 -7.75 20.765625 -8.96875 Z M 20.765625 -8.96875 " />
  </g>
  <path d="M 111.988281 104.429688 L 111.988281 104.207031 L 111.992188 103.988281 L 111.992188 103.765625 C 111.726562 97.226562 106.351562 91.925781 99.707031 91.816406 L 98.820312 91.800781 L 97.714844 91.78125 C 96.386719 91.757812 95.265625 92.847656 95.253906 94.175781 C 95.238281 95.503906 96.335938 96.632812 97.664062 96.652344 L 99.4375 96.683594 C 103.644531 96.753906 107.042969 100.246094 107.003906 104.457031 L 106.988281 105.785156 C 106.976562 107.113281 107.960938 108.128906 109.292969 108.152344 C 109.957031 108.160156 110.511719 107.839844 110.960938 107.402344 C 111.40625 106.96875 111.636719 106.308594 111.753906 105.753906 Z M 111.988281 104.429688 " fill-opacity="1" fill-rule="nonzero" />
  <path d="M 119.949219 105.894531 L 119.957031 104.785156 L 119.96875 103.898438 L 119.972656 103.457031 C 119.191406 92.808594 110.527344 84.132812 99.785156 83.839844 C 99.785156 83.839844 99.675781 83.726562 99.566406 83.835938 L 97.683594 83.695312 C 96.578125 83.675781 95.570312 84.65625 95.445312 85.871094 C 95.4375 86.980469 96.421875 87.992188 97.640625 88.125 L 99.632812 88.15625 C 108.382812 88.417969 115.398438 95.625 115.535156 104.269531 L 115.519531 105.820312 C 115.507812 106.925781 116.492188 107.941406 117.710938 108.070312 C 118.816406 108.089844 119.824219 107.109375 119.949219 105.894531 Z M 119.949219 105.894531 " fill-opacity="1" fill-rule="nonzero" />
  <path d="M 99.09375 117.710938 L 99.316406 117.714844 L 99.535156 117.722656 L 99.757812 117.726562 C 106.300781 117.554688 111.675781 112.253906 111.878906 105.609375 L 111.910156 104.726562 L 111.941406 103.617188 C 111.984375 102.289062 110.910156 101.15625 109.582031 101.125 C 108.253906 101.089844 107.113281 102.171875 107.070312 103.5 L 107.015625 105.273438 C 106.882812 109.480469 103.34375 112.828125 99.136719 112.726562 L 97.808594 112.695312 C 96.480469 112.664062 95.453125 113.632812 95.410156 114.964844 C 95.390625 115.628906 95.707031 116.1875 96.132812 116.640625 C 96.5625 117.097656 97.222656 117.332031 97.769531 117.457031 Z M 99.09375 117.710938 " fill-opacity="1" fill-rule="nonzero" />
  <path d="M 97.515625 125.648438 L 98.625 125.675781 L 99.507812 125.699219 L 99.953125 125.707031 C 110.609375 125.078125 119.410156 116.539062 119.851562 105.804688 C 119.851562 105.804688 119.96875 105.695312 119.859375 105.582031 L 120.03125 103.703125 C 120.0625 102.597656 119.097656 101.574219 117.882812 101.433594 C 116.777344 101.410156 115.75 102.378906 115.601562 103.597656 L 115.539062 105.589844 C 115.15625 114.332031 107.847656 121.246094 99.203125 121.257812 L 97.652344 121.222656 C 96.546875 121.195312 95.519531 122.167969 95.371094 123.382812 C 95.335938 124.488281 96.300781 125.511719 97.515625 125.648438 Z M 97.515625 125.648438 " fill-opacity="1" fill-rule="nonzero" />
  <path d="M 100.039062 100.261719 C 101.0625 100.261719 101.894531 101.101562 101.894531 102.136719 L 101.894531 108.011719 C 101.894531 109.046875 101.0625 109.886719 100.039062 109.886719 C 99.015625 109.886719 98.183594 109.046875 98.183594 108.011719 L 98.183594 102.136719 C 98.183594 101.101562 99.015625 100.261719 100.039062 100.261719 Z M 100.039062 100.261719 " fill-opacity="1" fill-rule="nonzero" />
</svg>
