<?xml version="1.0" encoding="utf-8"?>
<!-- Generator: Adobe Illustrator 25.0.0, SVG Export Plug-In . SVG Version: 6.00 Build 0)  -->
<svg version="1.1" xmlns="http://www.w3.org/2000/svg" xmlns:xlink="http://www.w3.org/1999/xlink" x="0px" y="0px"
	 viewBox="0 0 645 155.3" style="enable-background:new 0 0 645 155.3;" xml:space="preserve">
<style type="text/css">
	.st0{display:none;}
  text{font-size:130px}
</style>
<g id="Capa_1">
	<g>
		<path d="M86.9,42.1l-2.5,0.4l-4.6-16.4c-5.2-1.3-9.8-1.9-14-1.9c-10.2,0-18.2,3.6-24,10.7c-5.8,7.1-8.7,16.3-8.7,27.7
			c0,12.1,3.3,21.8,10,29.1c6.6,7.2,15.9,10.8,27.6,10.8c6.6,0,13.6-1.3,20.9-3.8l0.7,2.8c-8.2,5.7-17.5,8.5-27.8,8.5
			c-13.4,0-24.3-4.1-32.6-12.3c-8.3-8.2-12.4-19-12.4-32.4c0-14.3,4.6-25.5,13.7-33.9c9.1-8.3,21-12.5,35.6-12.5
			c7,0,14.2,0.9,21.6,2.6l0.4,0.5L86.9,42.1z"/>
		<path d="M188.5,62.1c0,14.4-4.1,25.9-12.2,34.7c-8.2,8.7-19.6,13.1-34.2,13.1c-13.9,0-24.7-4-32.3-12.1S98.3,78.8,98.3,65
			c0-14.4,4.1-25.8,12.3-34.1s19.6-12.6,34.1-12.6c14,0,24.7,3.9,32.4,11.8C184.7,37.9,188.5,48.5,188.5,62.1z M111.9,62.9
			c0,13.5,2.7,23.9,8.2,31.1c5.5,7.2,13.5,10.8,24.1,10.8c10.4,0,18.1-3.3,23.1-9.8c5-6.5,7.4-16.8,7.4-30.8
			c0-13.1-2.6-23.2-7.9-30.3c-5.3-7.1-13.4-10.6-24.4-10.6c-10.7,0-18.4,3.3-23.3,9.8C114.3,39.7,111.9,49.6,111.9,62.9z"/>
		<path d="M244.1,26c-4.4-1.5-8.4-2.2-12-2.2c-5.5,0-9.9,1.3-13.1,4c-3.3,2.7-4.9,6.4-4.9,11.1c0,2.7,0.6,5.1,1.7,7.1
			c1.1,2,2.7,3.8,4.6,5.4c1.9,1.5,4.1,2.9,6.6,4.1c2.5,1.2,5,2.4,7.6,3.6c2.9,1.2,5.7,2.6,8.4,4c2.7,1.4,5.1,3,7.3,4.9
			c2.2,1.9,3.9,4.1,5.2,6.7c1.3,2.6,2,5.7,2,9.2c0,8.3-3.2,14.6-9.7,19c-6.5,4.4-14.8,6.5-25.1,6.5c-6.6,0-13.9-1.1-21.9-3.4
			l-0.4-0.5l3.1-21.2l2.8-0.4l4.4,17.7c4.4,1.7,8.9,2.6,13.5,2.6c6.2,0,11-1.4,14.5-4.1c3.5-2.7,5.2-6.6,5.2-11.7c0-2.7-0.6-5-1.7-7
			c-1.1-2-2.6-3.8-4.5-5.2c-1.9-1.5-4-2.8-6.5-4c-2.4-1.2-4.9-2.4-7.5-3.5c-2.9-1.2-5.7-2.6-8.5-4.1c-2.7-1.5-5.2-3.1-7.4-5.1
			c-2.2-1.9-4-4.3-5.3-7.1c-1.3-2.8-2-6.1-2-9.8c0-7.5,3.1-13.3,9.4-17.5c6.3-4.1,14.1-6.2,23.4-6.2c6.6,0,13.4,0.8,20.6,2.3
			l0.4,0.4l-3.7,19.5l-2.5,0.4L244.1,26z"/>
		<path d="M335.1,118.4c0,8.6,0.2,17.3,0.5,26c-5.9,0.6-11.5,1.4-16.7,2.4l-0.9-0.7c0.1-8.6,0.2-17.3,0.2-26.2V103h-22.9
			c-8.4,0-18.6,0.1-30.6,0.3l-0.6-6.7c9.7-12.8,19.7-25.6,29.9-38.4c10.3-12.8,20.6-25.2,31-37.3l10.8-0.6
			c-0.4,13.7-0.6,26.6-0.6,38.5v35.2h21.1l0.4,9.4c-6.7-0.2-13.9-0.3-21.4-0.3V118.4z M318.1,41.6c-6.9,7.8-13.9,16.1-20.8,24.9
			c-7,8.8-13.8,17.9-20.6,27.3h41.4V41.6z"/>
    <text x="365.9" y="108">ENV</text>
	</g>
</g>
</svg>
