<svg xmlns="http://www.w3.org/2000/svg" viewBox="0 0 258 258"><path fill="#A1BC3A" d="M128.277 17.146c-.685 5.024-1.37 10.047-2.333 15.678-.279 1.204-.28 1.801-.28 2.399-9.518 37.753-31.77 65.103-67.374 80.942-9.022 4.014-19.017 5.84-29.262 8.755-1.115.193-1.533.303-1.951.413-4.745.251-9.49.502-14.74.423-.612-.807-.72-1.285-.828-1.763.103-.165.206-.331.797-.787 2.007-1.544 3.64-2.683 5.027-4.069C52.53 83.984 87.69 48.797 122.905 13.664c1.464-1.461 3.396-2.454 5.143-3.22.099 2.531.164 4.617.229 6.702z"/><path fill="#A1BD3A" d="M131.349 229.973c.524-2.394 1.049-4.788 1.666-7.82.082-.81.072-.985.061-1.16 4.355-13.295 9.447-26.244 17.768-37.667 21.706-29.797 50.764-46.576 87.649-49.486 1.979-.157 3.961-.265 6.233.17 0 1.306-.094 2.245-.61 2.76-19.765 19.684-39.59 39.307-59.357 58.99a10998.688 10998.688 0 0 0-49.33 49.392c-1.94 1.957-3.718 3.158-6.42 1.453-.352-2.454-.7-4.521-.692-6.69 1.247-3.381 2.14-6.662 3.032-9.942z"/><path fill="#92B438" d="M129.012 246.992c2.699 1.318 4.477.117 6.417-1.84a10998.688 10998.688 0 0 1 49.33-49.393c19.767-19.682 39.592-39.305 59.356-58.99.517-.514.61-1.453.922-2.568.42 1.077 1.19 2.534 1.17 3.98-.684 46.647-33.044 90.97-77.145 105.99-13.366 4.553-26.997 7.127-41.596 6.491-.455-.272-.454-.65-.11-.708.78-1.026 1.218-1.994 1.656-2.962zm116.965-122.638c-51.447-2.531-87.648-27.472-107.887-74.691-4.254-9.925-5.414-21.175-7.988-32.678.369-3.471.726-6.08 1.084-8.688.404.129.808.258 1.542.85 1.55 2 2.636 3.674 4.014 5.055 35.155 35.205 70.346 70.375 105.502 105.578 1.384 1.386 2.495 3.044 3.733 4.574z"/><path fill="#92B438" d="M129.008 246.605c-.434 1.355-.871 2.323-1.953 3.201-37.893-37.274-75.147-74.455-112.367-111.67-.778-.777-1.174-1.937-1.747-2.919 2.608.025 5.216.05 8.536.192 1.62.165 2.527.213 3.433.261 1.792.338 3.584.677 5.98 1.093.602.079 1.087.012 1.087.012.443.108.886.215 1.941.526 2.773.633 4.934 1.062 7.095 1.492 1.353.43 2.706.861 4.56 1.455.5.163.9.345.9.345l.434-.069c.62.236 1.241.472 2.398.909.928.28 1.321.36 1.714.44 10.702 6.016 21.404 12.03 32.591 18.411 1.795 1.384 3.104 2.402 4.413 3.42l7.66 7.457c.687.584.98.785 1.271.987 2.382 2.875 4.763 5.75 7.5 9.127 1.043 1.347 1.732 2.192 2.42 3.037a764.927 764.927 0 0 1 3.467 5.71c.311.61.475.711.71.699.544.947 1.088 1.895 1.904 3.344.54.73.81.958 1.08 1.187.805 1.78 1.61 3.56 2.71 5.863.56.84.825 1.158 1.09 1.476a5487.62 5487.62 0 0 1 7.07 20.412c.428.962.665 1.288.903 1.613.268 1.913.536 3.826.922 6.486.49 3.47.86 6.192 1.232 8.914.347 2.068.695 4.135 1.046 6.59zm-.993-236.606c-1.714 1.21-3.646 2.204-5.11 3.665C87.69 48.797 52.529 83.984 17.333 119.137c-1.387 1.386-3.02 2.525-4.873 3.82-.372-1.047-.409-2.134-.16-3.758.195-1.064.103-1.592.012-2.12.34-3.731.681-7.462 1.2-11.934.309-1.874.438-3.008.568-4.141.366-1.335.733-2.67 1.236-4.509.333-.785.356-1.08.206-1.39 6.028-20.147 15.891-38.087 31.033-52.838 20.72-20.185 45.495-31.513 74.46-33.421 1.327-.088 2.646-.294 4.592-.304a12.713 12.713 0 0 1 2.408 1.457z"/><path fill="#A1BD3A" d="M12.973 135.09c.541 1.109.937 2.269 1.715 3.046a55555.332 55555.332 0 0 0 112.024 111.728c.3.148.299.526.296.716-26.59-.067-50.207-8.705-71.03-25.103C35.84 209.621 22.54 189.152 15.12 163.95c-.792-3.133-1.457-5.541-2.122-7.95-.333-2.421-.666-4.843-1.082-7.884a4.173 4.173 0 0 0-.278-1.055c-.22-1.845-.44-3.69-.982-5.827-.322-.292-.29-.343-.29-.343.103-1.51.207-3.021.443-5.059.832-.728 1.531-.93 2.23-1.13 0 0-.035.26-.066.388zm233.334-10.63c-1.568-1.636-2.679-3.294-4.063-4.68-35.156-35.203-70.347-70.373-105.502-105.578-1.378-1.38-2.463-3.054-3.714-4.944 2.964-.283 5.958-.213 9.564.044.61.186 1.072.296 1.072.296l.41-.237c36.099 5.351 64.417 23.086 84.464 53.606 11.278 17.17 17.344 36.194 18.465 56.74.088 1.608-.234 3.24-.696 4.754z"/></svg>