<svg xmlns="http://www.w3.org/2000/svg" xmlns:xlink="http://www.w3.org/1999/xlink" version="1.1" id="Layer_1" x="0px" y="0px" width="100%" viewBox="0 0 512 512" enable-background="new 0 0 512 512" xml:space="preserve">

<path fill="#B5DBFF" opacity="1.000000" stroke="none" d=" M513.000000,106.531342   C503.197205,107.000000 493.394379,107.000000 483.185120,107.000000   C483.185120,94.389069 483.185120,82.000427 483.185120,69.574799   C449.066132,103.752281 415.169495,137.706985 381.288727,171.645859   C360.426178,161.217453 340.540558,151.277374 320.367310,141.193512   C299.568390,161.983078 278.629883,182.912140 257.361511,203.495056   C257.007477,188.733093 256.983307,174.317291 256.959137,159.901520   C276.116150,141.192459 295.273193,122.483406 314.814331,103.399200   C333.690155,112.836548 353.583374,122.782570 375.367035,133.673752   C402.743774,104.925781 430.580719,75.694542 457.757324,47.156723   C447.561035,47.156723 435.543701,47.156723 423.266235,47.156723   C423.266235,36.978062 423.266235,27.247898 423.266235,17.000326   C452.893768,17.000326 482.478210,17.000326 512.531372,17.000164   C513.000000,46.687561 513.000000,76.375122 513.000000,106.531342  z"/>

<path fill="#5F55AF" opacity="1.000000" stroke="none" d=" M256.943695,496.844604   C254.783997,496.896423 252.624313,496.993317 250.464615,496.993530   C167.622177,497.001160 84.779747,497.000000 1.468657,497.000000   C1.000000,487.312439 1.000000,477.624878 1.000000,467.468658   C11.020590,466.991364 21.041180,466.982727 31.994152,466.972473   C47.618244,466.925629 62.309959,466.880341 77.466873,466.896179   C92.622269,466.920044 107.312469,466.882751 122.002663,466.845459   C131.692123,466.885620 141.381577,466.925842 152.000397,466.968750   C167.622238,466.925537 182.314697,466.879578 197.470947,466.903076   C212.623077,466.926361 227.311447,466.880249 241.999817,466.834137   C246.675049,466.900177 251.350281,466.966217 256.501495,467.551422   C256.966217,477.661957 256.954956,487.253265 256.943695,496.844604  z"/>
<path fill="#453D83" opacity="1.000000" stroke="none" d=" M257.413269,496.900635   C256.954956,487.253265 256.966217,477.661957 256.960449,467.612976   C261.654266,467.097351 266.365112,467.039368 272.010132,466.984131   C287.626862,466.936188 302.309418,466.885498 317.457275,466.895996   C332.614410,466.933350 347.306244,466.909485 361.998077,466.885620   C371.689545,466.909668 381.381012,466.933716 392.004639,466.965485   C407.621246,466.926727 422.305756,466.880249 437.455322,466.900146   C452.612427,466.925568 467.304504,466.884583 481.996552,466.843597   C492.018585,466.895721 502.040649,466.947876 512.531372,467.000000   C513.000000,476.687561 513.000000,486.375122 513.000000,496.531342   C427.960968,496.985565 342.921906,496.971130 257.413269,496.900635  z"/>
<path fill="#C3EA21" opacity="1.000000" stroke="none" d=" M436.990234,466.833771   C422.305756,466.880249 407.621246,466.926727 392.470703,466.911011   C392.004608,377.100067 392.004608,287.351349 392.004608,197.021271   C406.872925,197.021271 421.463409,197.021271 436.522217,197.551010   C436.990417,287.665100 436.990326,377.249420 436.990234,466.833771  z"/>
<path fill="#9CDD05" opacity="1.000000" stroke="none" d=" M437.455322,466.900146   C436.990326,377.249420 436.990417,287.665100 436.984589,197.622833   C451.774475,197.164902 466.570312,197.164902 481.999176,197.164902   C481.999176,286.846313 481.999176,376.389160 481.997864,466.387817   C467.304504,466.884583 452.612427,466.925568 437.455322,466.900146  z"/>
<path fill="#D5E8FE" opacity="1.000000" stroke="none" d=" M256.646179,160.028076   C256.983307,174.317291 257.007477,188.733093 257.049866,203.622131   C237.943756,222.840546 218.819412,241.585724 199.345413,260.673645   C179.749405,250.874756 159.292908,240.645554 138.555267,230.275772   C115.298965,247.774124 91.914230,265.380249 68.516777,282.969391   C55.169777,293.003082 41.844387,303.067322 28.349220,312.898071   C27.440166,313.560303 24.462849,312.940186 23.663340,311.942291   C18.602446,305.625732 13.764108,299.117065 9.185094,292.443451   C8.510329,291.460083 9.001919,288.480469 9.962981,287.747314   C28.782736,273.391022 47.739609,259.214111 66.694778,245.035751   C83.428795,232.518768 100.202866,220.055328 116.942673,207.546066   C122.530670,203.370300 127.979454,198.999100 133.706955,195.027405   C134.764389,194.294113 137.106827,194.539261 138.429199,195.194489   C156.778763,204.286560 175.053802,213.529053 193.632111,222.878220   C214.458588,202.044296 235.395920,181.099472 256.646179,160.028076  z"/>
<path fill="#64E1DC" opacity="1.000000" stroke="none" d=" M316.991974,466.834808   C302.309418,466.885498 287.626862,466.936188 272.476440,466.960297   C272.008606,397.150696 272.008606,327.367706 272.008606,257.019043   C286.871826,257.019043 301.467712,257.019043 316.529114,257.550201   C316.993713,327.665833 316.992828,397.250336 316.991974,466.834808  z"/>
<path fill="#00C8C8" opacity="1.000000" stroke="none" d=" M317.457275,466.895996   C316.992828,397.250336 316.993713,327.665833 316.992004,257.623444   C331.785431,257.165527 346.581451,257.165527 361.999664,257.165527   C361.999664,326.855103 361.999664,396.412994 361.998871,466.428223   C347.306244,466.909485 332.614410,466.933350 317.457275,466.895996  z"/>
<path fill="#FFDA2D" opacity="1.000000" stroke="none" d=" M197.007172,466.833618   C182.314697,466.879578 167.622238,466.925537 152.465027,466.903656   C152.000290,417.077179 152.000290,367.318512 152.000290,317.018402   C166.883743,317.018402 181.473984,317.018402 196.529785,317.550293   C196.999298,367.666016 197.003235,417.249817 197.007172,466.833618  z"/>
<path fill="#FDBF00" opacity="1.000000" stroke="none" d=" M197.470947,466.903076   C197.003235,417.249817 196.999298,367.666016 196.992615,317.624207   C211.785461,317.166229 226.581024,317.166229 241.999939,317.166229   C241.999939,366.810364 241.999939,416.365509 241.999878,466.377380   C227.311447,466.880249 212.623077,466.926361 197.470947,466.903076  z"/>
<path fill="#FF80AC" opacity="1.000000" stroke="none" d=" M77.001671,466.835052   C62.309959,466.880341 47.618244,466.925629 32.460030,466.922729   C31.993530,437.103210 31.993530,407.331879 31.993530,377.018738   C46.884975,377.018738 61.472668,377.018738 76.526764,377.550018   C76.995995,407.665894 76.998833,437.250458 77.001671,466.835052  z"/>
<path fill="#FF3980" opacity="1.000000" stroke="none" d=" M77.466873,466.896179   C76.998833,437.250458 76.995995,407.665894 76.989410,377.623352   C91.775459,377.165375 106.565247,377.165375 122.000542,377.165375   C122.000542,406.819153 122.000542,436.376648 122.001602,466.389771   C107.312469,466.882751 92.622269,466.920044 77.466873,466.896179  z"/>
</svg>